<?xml version="1.0" encoding="utf-8"?>
<svg xmlns="http://www.w3.org/2000/svg" xmlns:xlink="http://www.w3.org/1999/xlink" viewBox="0 0 800 800" xml:space="preserve">
  <style type="text/css">
    .st0{fill:none;stroke:#000000;stroke-width:35;stroke-linecap:round;stroke-linejoin:round;}
  </style>
  <path class="st0" d="M398,29H118.2C66.7,29,25,70.7,25,122.2v559.6c0,51.5,41.8,93.3,93.3,93.3h559.6c51.5,0,93.3-41.8,93.3-93.3V402"/>
  <path class="st0" d="M697.1,234.8l50.6-50.6c36.4-36.4,36.4-95.5,0-131.9c-36.4-36.4-95.5-36.4-131.9,0l-50.6,50.6"/>
  <path class="st0" d="M697.1,234.8L415.6,516.3c-13,13-29.6,21.9-47.7,25.5l-137.2,27.4L258.2,432c3.6-18.1,12.5-34.6,25.5-47.7l281.5-281.5"/>
  <path class="st0" d="M697.1,234.8L565.2,102.9"/>
</svg>
