<?xml version="1.0" encoding="utf-8"?>
<svg xmlns="http://www.w3.org/2000/svg" xmlns:xlink="http://www.w3.org/1999/xlink" viewBox="0 0 800 800" xml:space="preserve">
  <style type="text/css">
    .st0{fill:none;stroke:#000000;stroke-width:35;stroke-linecap:round;stroke-linejoin:round;}
  </style>
  <g>
    <path class="st0" d="M31,123.2c0-51,41.3-92.3,92.3-92.3H400h100.2c24.5,0,47.9,9.7,65.2,27L742,234.6c17.3,17.3,27,40.8,27,65.2V400v276.8c0,51-41.3,92.3-92.3,92.3H123.3c-51,0-92.3-41.3-92.3-92.3C30.9,676.8,30.9,123.2,31,123.2z"/>
    <path class="st0" d="M284.8,30.9h230.7v138.4c0,25.5-20.7,46.1-46.1,46.1H330.8c-25.5,0-46.1-20.7-46.1-46.1V30.9L284.8,30.9z"/>
    <path class="st0" d="M169.4,538.4c0-51,41.3-92.3,92.3-92.3h276.8c51,0,92.3,41.3,92.3,92.3v230.7H169.4V538.4z"/>
  </g>
</svg>
