<?xml version="1.0" encoding="utf-8"?>
<svg xmlns="http://www.w3.org/2000/svg" xmlns:xlink="http://www.w3.org/1999/xlink" viewBox="0 0 800 800" xml:space="preserve">
  <g>
    <polygon points="657.3,316.7 571.2,403.5 658.3,403.5 658.3,316.7"/>
    <path d="M169.8,403.5h41.8l-17.3-41.6c-0.4-1-0.6-2-0.9-3c-6.3-19.4,3.1-40.7,22.2-48.6l0.1,0l-0.1-0.1c-9.7-4-17.3-11.6-21.4-21.4c-4-9.7-4-20.4,0-30.2l19.4-47c6.2-14.8,20.5-24.4,36.5-24.4c5.2,0,10.2,1,15.1,3l0.1,0l0-0.1c-1.6-3.8-2.3-7.7-2.7-11.7c-8.7-4.7-18.6-7.7-29.3-7.7h-154c-34,0-61.7,27.6-61.7,61.7v30.8v95.6v262.5l77.9-170.1C108.7,422.2,137.9,403.5,169.8,403.5z"/>
    <path d="M255.4,213.8c-1.7-0.7-3.6-1.1-5.3-1.1c-5.5,0-10.7,3.3-13,8.7l-19.4,46.9c-1.4,3.4-1.4,7.3,0,10.7c1.4,3.4,4.2,6.2,7.6,7.6l26.6,11c-0.8,8.3-0.8,16.7,0,25.2l-26.6,11.1c-7.1,3-10.5,11.2-7.5,18.3l19.5,46.9c0.8,1.9,2.3,3.2,3.8,4.5h21.7l19.3-8c2.5,3,5.4,5.3,8.1,8h73.2l5-5.1c-29.5-5.6-54.7-25.4-66.6-53.9c-9.3-22.3-9.3-46.8-0.1-69.1c9.2-22.3,26.5-39.6,48.7-48.9c11.1-4.6,22.7-7,34.6-7c36.6,0,69.3,21.8,83.3,55.6c2.3,5.6,4.1,11.3,5.2,17.1l62.8-63.3l-3.4-8.2c-2.2-5.4-7.5-8.6-13-8.6c-1.8,0-3.6,0.3-5.4,1.1l-26.6,11c-5.4-6.5-11.4-12.4-17.9-17.7l11-26.6c1.4-3.4,1.4-7.3,0-10.7c-1.4-3.4-4.1-6.2-7.6-7.6l-46.9-19.3c-1.7-0.7-3.6-1.1-5.3-1.1c-5.5,0-10.7,3.3-12.9,8.7l-11,26.7c-4.2-0.4-8.4-0.6-12.7-0.6c-4.1,0-8.3,0.2-12.5,0.6l-11-26.6c-2.2-5.4-7.4-8.6-12.9-8.6c-1.8,0-3.6,0.3-5.4,1.1L296.2,162c-7.1,3-10.5,11.2-7.5,18.3l11.1,26.6c-6.6,5.4-12.5,11.4-17.8,17.9L255.4,213.8z"/>
    <path d="M385.2,245.2c-8.5,0-16.9,1.7-24.9,5c-16,6.6-28.4,19.1-35,35.1c-6.6,16-6.6,33.6,0.1,49.5c11.1,26.6,39.6,42,67.5,39l56.3-56.7c1.2-10.8,0-21.7-4.3-32C434.9,260.9,411.5,245.2,385.2,245.2z"/>
    <path d="M754.1,170.2l-40.4,40.7c-7.1,7.1-18.6,7.2-25.8,0.1c-49.4-49-48.6-36.4,10.5-96c15.2-15.3-29.6-42.1-61.4-19.4c-60.7,43.2-55.5,50.2-59.4,128.4L399.4,403.5h135.8l110.9-111.7l48.7-2.8c25.6-1.5,49.1-14.5,63.8-35.5l15.5-22.1C796.3,199.7,769.5,154.7,754.1,170.2z"/>
    <path d="M714.8,441.8h-545c-17.1,0-32.5,9.9-39.6,25.4L34,677.3c-3.6,7.8-3,17,1.7,24.2c4.7,7.3,12.7,11.7,21.3,11.7h585c9.9,0,18.9-5.8,23.1-14.8l89.3-194.9c6.2-13.5,5.1-29.2-3-41.7C743.4,449.3,729.6,441.8,714.8,441.8z"/>
  </g>
</svg>
